# AST/ASF file generated using VICON BodyLanguage
# -----------------------------------------------
:version 1.10
:name VICON
:units
  mass 1.0
  length 0.45
  angle deg
:documentation
   .ast/.asf automatically generated from VICON data using
   VICON BodyBuilder and BodyLanguage model FoxedUp or BRILLIANT.MOD
:root
   order TX TY TZ RX RY RZ
   axis XYZ
   position 0 0 0  
   orientation 0 0 0 
:bonedata
  begin
     id 1 
     name lhipjoint
     direction 0.702568 -0.596508 0.388042 
     length 2.56661 
     axis 0 0 0  XYZ
  end
  begin
     id 2 
     name lfemur
     direction 0.34202 -0.939693 0  
     length 6.58374  
     axis 0 0 20  XYZ
    dof rx ry rz
    limits (-160.0 20.0)
           (-70.0 70.0)
           (-60.0 70.0)
  end
  begin
     id 3 
     name ltibia
     direction 0.34202 -0.939693 0   
     length 6.62538   
     axis 0 0 20   XYZ
    dof rx
    limits (-10.0 170.0)
  end
  begin
     id 4 
     name lfoot
     direction 0.10455 -0.287249 0.952133   
     length 2.26699   
     axis -90 7.62852e-016 20   XYZ
    dof rx rz
    limits (-45.0 90.0)
           (-70.0 20.0)
  end
  begin
     id 5 
     name ltoes
     direction 1.53572e-011 -4.22322e-011 1   
     length 1.12949   
     axis -90 7.62852e-016 20   XYZ
    dof rx
    limits (-90.0 20.0)
  end
  begin
     id 6 
     name rhipjoint
     direction -0.728055 -0.574632 0.373811   
     length 2.66432  
     axis 0 0 0  XYZ 
  end
  begin
     id 7 
     name rfemur
     direction -0.34202 -0.939693 0   
     length 6.66732   
     axis 0 0 -20   XYZ
    dof rx ry rz
    limits (-160.0 20.0)
           (-70.0 70.0)
           (-70.0 60.0)
  end
  begin
     id 8 
     name rtibia
     direction -0.34202 -0.939693 0   
     length 6.59288   
     axis 0 0 -20   XYZ
    dof rx
    limits (-10.0 170.0)
 end
 begin
     id 9 
     name rfoot
     direction -0.119193 -0.327479 0.93731   
     length 2.38061  
     axis -90 -7.62852e-016 -20   XYZ
    dof rx rz
    limits (-45.0 90.0)
           (-20.0 70.0)
  end
  begin
     id 10 
     name rtoes
     direction -1.53547e-011 -4.21827e-011 1   
     length 1.17899   
     axis -90 -7.62852e-016 -20   XYZ
    dof rx
    limits (-90.0 20.0)
  end
  begin
     id 11 
     name lowerback
     direction -0.000416114 0.999912 -0.0132284   
     length 2.12109   
     axis 0 0 0   XYZ
    dof rx ry rz
    limits (-20.0 45.0)
           (-30.0 30.0)
           (-30.0 30.0)
  end
  begin
     id 12 
     name upperback
     direction -0.00136371 0.99809 0.0617608   
     length 2.10067   
     axis 0 0 0   XYZ
    dof rx ry rz
    limits (-20.0 45.0)
           (-30.0 30.0)
           (-30.0 30.0)
  end
  begin
     id 13 
     name thorax
     direction -3.43026e-005 0.997776 0.0666515   
     length 2.10618   
     axis 0 0 0   XYZ
    dof rx ry rz
    limits (-20.0 45.0)
           (-30.0 30.0)
           (-30.0 30.0)
  end
  begin
     id 14 
     name lowerneck
     direction 0.0398646 0.998418 0.0396592   
     length 1.83817   
     axis 0 0 0   XYZ
    dof rx ry rz
    limits (-20.0 45.0)
           (-30.0 30.0)
           (-30.0 30.0)
  end
  begin
     id 15 
     name upperneck
     direction -0.0367268 0.961527 -0.272244   
     length 1.81975   
     axis 0 0 0   XYZ
    dof rx ry rz
    limits (-20.0 45.0)
           (-30.0 30.0)
           (-30.0 30.0)
  end
  begin
     id 16
     name head
     direction -0.0182665 0.99536 -0.0944669  
     length 1.86026  
     axis 0 0 0   XYZ
    dof rx ry rz
    limits (-20.0 45.0)
           (-30.0 30.0)
           (-30.0 30.0)
  end
  begin
     id 17 
     name lclavicle
     direction 0.924239 0.361045 0.124212  
     length 3.26878  
     axis 0 0 0   XYZ
    dof ry rz
    limits (-20.0 10.0)
           (0.0 20.0)
  end
  begin
     id 18 
     name lhumerus
     direction 1 -4.48968e-011 -2.56583e-027   
     length 4.58538   
     axis 180 -30 -90   XYZ
    dof rx ry rz
    limits (-60.0 90.0)
           (-90.0 90.0)
           (-90.0 90.0)
  end
  begin
     id 19
     name lradius
     direction 1 -4.4898e-011 -5.50375e-027   
     length 2.68935   
     axis 180 -30 -90   XYZ
    dof rx
    limits (-10.0 170.0)
  end
  begin
     id 20
     name lwrist
     direction 1 -4.48939e-011 -1.48955e-026   
     length 1.34468   
     axis 9.0955e-015 90 90   XYZ
    dof ry
    limits (-180.0 0.0)
 end
  begin
     id 21 
     name lhand
     direction 1 -4.48936e-011 -2.97907e-026   
     length 0.585058   
     axis 1.90115e-014 90 90   XYZ
    dof rx rz
    limits (-90.0 90.0)
           (-45.0 45.0)
  end
  begin
     id 22 
     name lfingers
     direction 1 -4.49082e-011 -5.96235e-026   
     length 0.471689   
     axis 3.80223e-014 90 90   XYZ
    dof rx
    limits (0.0 90.0)
  end
  begin
     id 23
     name lthumb
     direction 0.707107 -6.3489e-011 0.707107   
     length 0.677253   
     axis -90 45 -3.84942e-014   XYZ
    dof rx rz
    limits (-45.0 45.0)
           (-45.0 45.0)
  end
  begin
     id 24 
     name rclavicle
     direction -0.923098 0.371783 0.0983239   
     length 3.19656  
     axis 0 0 0   XYZ 
    dof ry rz
    limits (-10.0 20.0)
           (-20.0 0.0)
  end
  begin
     id 25 
     name rhumerus
     direction -1 -4.48976e-011 -2.5492e-027  
     length 4.4745   
     axis 180 30 90   XYZ
    dof rx ry rz
    limits (-90.0 60.0)
           (-90.0 90.0)
           (-90.0 90.0)
  end
  begin
     id 26 
     name rradius
     direction -1 -4.48941e-011 -4.36555e-027   
     length 2.93896   
     axis 180 30 90   XYZ
    dof rx
    limits (-10.0 170.0)
  end
  begin
     id 27 
     name rwrist
     direction -1 -4.49044e-011 -1.49032e-026   
     length 1.46948   
     axis 9.0955e-015 -90 -90   XYZ
    dof ry
    limits (-180.0 0.0)
  end
  begin
     id 28
     name rhand
     direction -1 -4.48826e-011 -2.97749e-026   
     length 0.405092   
     axis 1.90115e-014 -90 -90   XYZ
    dof rx rz
    limits (-90.0 90.0)
           (-45.0 45.0)
  end
  begin
     id 29
     name rfingers
     direction -1 -4.49209e-011 -5.96602e-026   
     length 0.326596   
     axis 3.80223e-014 -90 -90   XYZ
    dof rx
    limits (0.0 90.0)
  end
  begin
     id 30
     name rthumb
     direction -0.707107 -6.34776e-011 0.707107   
     length 0.468928   
     axis -90 -45 3.84942e-014   XYZ
    dof rx rz
    limits (-45.0 45.0)
           (-45.0 45.0)
  end
:hierarchy
  begin
    root lhipjoint rhipjoint lowerback
    lhipjoint lfemur
    lfemur ltibia
    ltibia lfoot
    lfoot ltoes
    rhipjoint rfemur
    rfemur rtibia
    rtibia rfoot
    rfoot rtoes
    lowerback upperback
    upperback thorax
    thorax lowerneck lclavicle rclavicle
    lowerneck upperneck
    upperneck head
    lclavicle lhumerus
    lhumerus lradius
    lradius lwrist
    lwrist lhand lthumb
    lhand lfingers
    rclavicle rhumerus
    rhumerus rradius
    rradius rwrist
    rwrist rhand rthumb
    rhand rfingers
  end

#!OML:ASF H:\Punching\Project 1\Capture day 1\Session 1\female.ASF
:FULLY-SPECIFIED
:DEGREES
984
root -0.35183 15.2332 4.71275 -25.7013 -27.8941 15.2958
lowerback 8.38675 -1.98645 5.81418
upperback 2.68591 -2.56065 -9.47036
thorax -2.58071 -1.38076 -13.3738
lowerneck 5.15748 13.0672 15.4798
upperneck 38.207 23.1006 -14.5201
head 17.0269 10.6878 -5.88202
rclavicle -5.71506e-014 -8.70677e-014
rhumerus 23.0258 38.2149 -65.7062
rradius 117.117
rwrist -11.1771
rhand -30.0145 12.3889
rfingers 7.12502
rthumb -3.33147 -17.5648
lclavicle -5.71506e-014 -8.70677e-014
lhumerus -13.4847 -4.93862 60.5799
lradius 141.888
lwrist -0.712993
lhand -27.2279 5.80982
lfingers 7.12502
lthumb -0.640189 35.7886
rfemur 3.70158 10.7545 16.38
rtibia 41.2912
rfoot -22.6939 -12.3735
rtoes 12.763
lfemur -105.62 22.5496 -24.2123
ltibia 120.801
lfoot 34.9059 -5.6961
ltoes -13.8295
985
root -0.33696 15.2382 4.67564 -24.5582 -27.4695 14.8607
lowerback 8.13603 -1.97205 5.90018
upperback 2.47844 -2.53468 -9.31116
thorax -2.65103 -1.37656 -13.2448
lowerneck 4.74281 12.9463 15.4033
upperneck 38.2905 22.8835 -14.4447
head 17.0825 10.5716 -5.85074
rclavicle -5.91881e-014 5.68524e-014
rhumerus 23.0914 37.9162 -65.4052
rradius 117.273
rwrist -11.3596
rhand -29.9493 12.4164
rfingers 7.12502
rthumb -3.26854 -17.5382
lclavicle -5.91881e-014 5.68524e-014
lhumerus -13.1555 -5.04683 60.7856
lradius 141.859
lwrist -0.536753
lhand -27.1975 5.47072
lfingers 7.12502
lthumb -0.610809 35.4496
rfemur 2.55527 10.6602 16.5715
rtibia 41.4875
rfoot -22.5473 -12.8527
rtoes 12.8896
lfemur -104.387 22.1304 -24.841
ltibia 123.062
lfoot 35.1405 -6.00838
ltoes -12.8285
986
root -0.323475 15.2447 4.639 -23.3055 -27.0647 14.4131
lowerback 7.7739 -1.94006 5.99414
upperback 2.23268 -2.48765 -9.14122
thorax -2.6936 -1.36174 -13.1126
lowerneck 4.32248 12.8276 15.3295
upperneck 38.385 22.6636 -14.3491
head 17.1425 10.4561 -5.81129
rclavicle -3.66758e-014 -2.06736e-014
rhumerus 23.1362 37.6006 -65.1115
rradius 117.408
rwrist -11.4209
rhand -29.9308 12.392
rfingers 7.12502
rthumb -3.25063 -17.563
lclavicle -3.66758e-014 -2.06736e-014
lhumerus -12.8311 -5.20052 60.976
lradius 141.816
lwrist -0.477734
lhand -27.1812 5.26723
lfingers 7.12502
lthumb -0.595144 35.2461
rfemur 1.27935 10.5711 16.7683
rtibia 41.6915
rfoot -22.3862 -13.3315
rtoes 13.0234
lfemur -103.154 21.7189 -25.4008
ltibia 125.102
lfoot 35.5091 -6.62301
ltoes -12.333
987
root -0.311414 15.2524 4.60233 -21.9995 -26.6708 13.9608
lowerback 7.36257 -1.90301 6.07459
upperback 1.95704 -2.43732 -8.95932
thorax -2.73802 -1.34654 -12.9594
lowerneck 3.91552 12.7155 15.2555
upperneck 38.4769 22.4526 -14.2488
head 17.2004 10.3458 -5.76892
rclavicle 2.38542e-014 1.39149e-014
rhumerus 23.1657 37.2909 -64.8254
rradius 117.535
rwrist -11.3943
rhand -29.9404 12.3058
rfingers 7.12502
rthumb -3.25995 -17.649
lclavicle 2.38542e-014 1.39149e-014
lhumerus -12.5303 -5.34966 61.1476
lradius 141.761
lwrist -0.427055
lhand -27.1302 5.06072
lfingers 7.12502
lthumb -0.545803 35.0398
rfemur -0.0641979 10.479 16.9671
rtibia 41.8919
rfoot -22.2102 -13.7996
rtoes 13.1506
lfemur -101.844 21.304 -25.8825
ltibia 126.912
lfoot 35.9397 -7.48965
ltoes -12.2837
988
root -0.300721 15.2609 4.5651 -20.714 -26.2754 13.5149
lowerback 6.97251 -1.86809 6.13109
upperback 1.67847 -2.39248 -8.77789
thorax -2.79755 -1.33508 -12.7913
lowerneck 3.50499 12.6108 15.1901
upperneck 38.5625 22.2483 -14.1423
head 17.2586 10.2402 -5.72312
rclavicle 6.11263e-015 -7.07673e-014
rhumerus 23.1904 36.9718 -64.5543
rradius 117.665
rwrist -11.3262
rhand -29.9636 12.1602
rfingers 7.12502
rthumb -3.28234 -17.7943
lclavicle 6.11263e-015 -7.07673e-014
lhumerus -12.2273 -5.5098 61.2902
lradius 141.707
lwrist -0.357595
lhand -27.0553 4.81555
lfingers 7.12502
lthumb -0.473485 34.7948
rfemur -1.35283 10.3775 17.1644
rtibia 41.983
rfoot -21.9686 -14.2413
rtoes 13.2773
lfemur -100.364 20.8752 -26.2731
ltibia 128.473
lfoot 36.3427 -8.48002
ltoes -12.5851
989
root -0.291291 15.2698 4.52713 -19.439 -25.8588 13.0755
lowerback 6.59755 -1.83914 6.16196
upperback 1.38782 -2.35857 -8.59835
thorax -2.87995 -1.33084 -12.6088
lowerneck 3.11487 12.5076 15.132
upperneck 38.6369 22.0439 -14.0329
head 17.3071 10.1374 -5.67822
rclavicle -5.46658e-014 -2.06736e-014
rhumerus 23.1892 36.6474 -64.3075
rradius 117.813
rwrist -11.2743
rhand -29.9787 11.9761
rfingers 7.12502
rthumb -3.29692 -17.9781
lclavicle -5.46658e-014 -2.06736e-014
lhumerus -11.9401 -5.72269 61.4146
lradius 141.662
lwrist -0.307912
lhand -26.9736 4.58856
lfingers 7.12502
lthumb -0.394573 34.5679
rfemur -2.63829 10.2478 17.3499
rtibia 42.0684
rfoot -21.726 -14.6588
rtoes 13.4031
lfemur -98.7148 20.3947 -26.5896
ltibia 129.792
lfoot 36.6344 -9.46407
ltoes -13.1289
990
root -0.28456 15.3016 4.48338 -18.186 -25.4031 12.6583
lowerback 6.2414 -1.82145 6.15015
upperback 1.09134 -2.34371 -8.42843
thorax -2.9824 -1.33729 -12.4095
lowerneck 2.73451 12.4077 15.0871
upperneck 38.6965 21.8415 -13.9241
head 17.3485 10.0384 -5.63526
rclavicle 5.91384e-015 3.93594e-014
rhumerus 23.1709 36.314 -64.0892
rradius 117.986
rwrist -11.2815
rhand -29.9782 11.7712
rfingers 7.12502
rthumb -3.29637 -18.1831
lclavicle 5.91384e-015 3.93594e-014
lhumerus -11.6567 -5.96182 61.5102
lradius 141.628
lwrist -0.216686
lhand -26.8732 4.34842
lfingers 7.12502
lthumb -0.297656 34.328
rfemur -3.86903 10.0815 17.5061
rtibia 42.0812
rfoot -21.4721 -15.0453
rtoes 13.5777
lfemur -96.5921 19.8641 -26.8385
ltibia 130.7
lfoot 36.6159 -10.2538
ltoes -13.5347
991
root -0.277318 15.3093 4.44501 -16.9532 -24.9034 12.2743
lowerback 5.88711 -1.81456 6.09328
upperback 0.795318 -2.34737 -8.27208
thorax -3.0884 -1.35283 -12.1971
lowerneck 2.33843 12.3135 15.0419
upperneck 38.7568 21.6419 -13.8045
head 17.3935 9.94063 -5.5857
rclavicle -9.83984e-015 1.74931e-014
rhumerus 23.147 35.9633 -63.8919
rradius 118.189
rwrist -11.3848
rhand -29.9637 11.6343
rfingers 7.12502
rthumb -3.28242 -18.3201
lclavicle -9.83984e-015 1.74931e-014
lhumerus -11.3535 -6.21917 61.5726
lradius 141.599
lwrist -0.0693563
lhand -26.768 4.15345
lfingers 7.12502
lthumb -0.196045 34.1331
rfemur -5.14105 9.88178 17.6194
rtibia 42.1739
rfoot -21.2709 -15.4121
rtoes 13.7859
lfemur -94.601 19.1736 -27.0301
ltibia 131.511
lfoot 36.5663 -10.796
ltoes -13.8434
992
root -0.270932 15.3174 4.40674 -15.7398 -24.362 11.9238
lowerback 5.527 -1.81411 6.00382
upperback 0.503744 -2.36275 -8.13397
thorax -3.18816 -1.37338 -11.9858
lowerneck 1.93574 12.2185 15.0102
upperneck 38.7998 21.4369 -13.6876
head 17.4322 9.8425 -5.53945
rclavicle -2.04748e-014 -2.38542e-015
rhumerus 23.1131 35.5869 -63.717
rradius 118.422
rwrist -11.5845
rhand -29.9202 11.4719
rfingers 7.12502
rthumb -3.2404 -18.4832
lclavicle -2.04748e-014 -2.38542e-015
lhumerus -11.0144 -6.4997 61.6026
lradius 141.569
lwrist 0.123966
lhand -26.6611 4.08638
lfingers 7.12502
lthumb -0.0927515 34.0661
rfemur -6.41034 9.65123 17.6938
rtibia 42.276
rfoot -21.092 -15.7612
rtoes 14.0373
lfemur -92.4428 18.3525 -27.1619
ltibia 132.06
lfoot 36.3638 -11.1138
ltoes -14.0609
993
root -0.265295 15.3258 4.36895 -14.5459 -23.7812 11.6056
lowerback 5.1572 -1.82108 5.88227
upperback 0.213406 -2.39067 -8.00641
thorax -3.28259 -1.39926 -11.7669
lowerneck 1.54501 12.1218 14.9772
upperneck 38.8212 21.228 -13.5773
head 17.4563 9.74346 -5.49685
rclavicle -1.3418e-015 3.57812e-015
rhumerus 23.062 35.2005 -63.5514
rradius 118.685
rwrist -11.869
rhand -29.8694 11.297
rfingers 7.12502
rthumb -3.19136 -18.6588
lclavicle -1.3418e-015 3.57812e-015
lhumerus -10.6581 -6.78823 61.6187
lradius 141.529
lwrist 0.340626
lhand -26.5739 4.17571
lfingers 7.12502
lthumb -0.00852411 34.1555
rfemur -7.71514 9.39601 17.7346
rtibia 42.4852
rfoot -20.9928 -16.1062
rtoes 14.306
lfemur -90.124 17.3925 -27.2323
ltibia 132.351
lfoot 35.998 -11.2807
ltoes -14.2702
994
root -0.260279 15.3341 4.33209 -13.3697 -23.1729 11.3109
lowerback 4.77515 -1.83216 5.74217
upperback -0.0679881 -2.42521 -7.88677
thorax -3.36089 -1.4267 -11.5467
lowerneck 1.14457 12.0244 14.9408
upperneck 38.827 21.0167 -13.4731
head 17.4744 9.64243 -5.45592
rclavicle 2.37548e-014 -7.95139e-015
rhumerus 23.005 34.7975 -63.384
rradius 118.971
rwrist -12.2127
rhand -29.8174 11.1059
rfingers 7.12502
rthumb -3.14109 -18.8507
lclavicle 2.37548e-014 -7.95139e-015
lhumerus -10.2683 -7.07307 61.6236
lradius 141.467
lwrist 0.560072
lhand -26.5137 4.38803
lfingers 7.12502
lthumb 0.049611 34.3678
rfemur -9.01081 9.12766 17.7563
rtibia 42.7008
rfoot -20.9003 -16.4482
rtoes 14.5631
lfemur -87.6841 16.3068 -27.2358
ltibia 132.385
lfoot 35.5178 -11.3622
ltoes -14.5425
995
root -0.255777 15.3417 4.2964 -12.2097 -22.5483 11.0285
lowerback 4.37993 -1.84913 5.59262
upperback -0.343303 -2.46764 -7.76444
thorax -3.42567 -1.4565 -11.3184
lowerneck 0.749548 11.928 14.8974
upperneck 38.8168 20.8119 -13.3868
head 17.4868 9.54239 -5.42099
rclavicle -5.09883e-014 -3.4191e-014
rhumerus 22.9484 34.3976 -63.207
rradius 119.27
rwrist -12.5909
rhand -29.7728 10.9138
rfingers 7.12502
rthumb -3.09808 -19.0434
lclavicle -5.09883e-014 -3.4191e-014
lhumerus -9.86777 -7.3362 61.6319
lradius 141.378
lwrist 0.757377
lhand -26.4798 4.65023
lfingers 7.12502
lthumb 0.0823255 34.63
rfemur -10.2961 8.85433 17.7741
rtibia 42.9254
rfoot -20.807 -16.7864
rtoes 14.7721
lfemur -85.1537 15.1173 -27.1702
ltibia 132.176
lfoot 34.9536 -11.3803
ltoes -14.8103
996
root -0.251723 15.349 4.26236 -11.0742 -21.9172 10.7674
lowerback 3.96991 -1.86972 5.42839
upperback -0.610195 -2.51499 -7.64022
thorax -3.47249 -1.4868 -11.0803
lowerneck 0.359343 11.8346 14.8471
upperneck 38.7927 20.6173 -13.3184
head 17.4955 9.44463 -5.3913
rclavicle 9.6013e-014 1.35174e-014
rhumerus 22.9023 34.003 -63.0128
rradius 119.57
rwrist -12.9637
rhand -29.7358 10.7199
rfingers 7.12502
rthumb -3.06227 -19.2379
lclavicle 9.6013e-014 1.35174e-014
lhumerus -9.47133 -7.57593 61.6513
lradius 141.263
lwrist 0.909047
lhand -26.4706 4.87389
lfingers 7.12502
lthumb 0.0912127 34.8536
rfemur -11.5669 8.57834 17.779
rtibia 43.1594
rfoot -20.7124 -17.112
rtoes 14.9249
lfemur -82.5477 13.8465 -27.0555
ltibia 131.732
lfoot 34.3306 -11.3189
ltoes -14.9983
997
root -0.247876 15.3552 4.23012 -9.96132 -21.2929 10.5257
lowerback 3.54998 -1.89361 5.25091
upperback -0.87832 -2.56657 -7.50855
thorax -3.51386 -1.51809 -10.8272
lowerneck -0.00480439 11.7448 14.7908
upperneck 38.7563 20.4387 -13.2743
head 17.4993 9.35225 -5.37051
rclavicle -3.22031e-014 -4.81059e-014
rhumerus 22.863 33.6314 -62.799
rradius 119.871
rwrist -13.3059
rhand -29.7138 10.5364
rfingers 7.12502
rthumb -3.04104 -19.4216
lclavicle -3.22031e-014 -4.81059e-014
lhumerus -9.10379 -7.78997 61.6878
lradius 141.128
lwrist 1.01044
lhand -26.4634 4.96634
lfingers 7.12502
lthumb 0.0981946 34.9461
rfemur -12.8282 8.30765 17.7746
rtibia 43.4061
rfoot -20.6069 -17.4267
rtoes 14.9907
lfemur -79.895 12.5279 -26.9132
ltibia 131.073
lfoot 33.658 -11.1884
ltoes -15.0819
998
root -0.24411 15.3608 4.19992 -8.87473 -20.6875 10.3088
lowerback 3.12343 -1.91523 5.06042
upperback -1.1488 -2.61476 -7.3721
thorax -3.55115 -1.54665 -10.563
lowerneck -0.349197 11.6588 14.7284
upperneck 38.717 20.2738 -13.2449
head 17.5025 9.26454 -5.35443
rclavicle 2.11209e-014 9.54166e-015
rhumerus 22.8239 33.2774 -62.5653
rradius 120.164
rwrist -13.5969
rhand -29.7138 10.3873
rfingers 7.12502
rthumb -3.04105 -19.5708
lclavicle 2.11209e-014 9.54166e-015
lhumerus -8.77416 -7.99268 61.7502
lradius 140.984
lwrist 1.06102
lhand -26.4313 4.90095
lfingers 7.12502
lthumb 0.129184 34.8807
rfemur -14.0812 8.04057 17.7558
rtibia 43.6688
rfoot -20.5045 -17.7203
rtoes 15.0112
lfemur -77.2109 11.1924 -26.7623
ltibia 130.215
lfoot 32.9425 -10.9274
ltoes -14.8929
